<svg width="137" height="41" viewBox="0 0 137 41" fill="none" xmlns="http://www.w3.org/2000/svg">
    <path d="M88.9635 24V15.74H86.0235V14.2H93.8635V15.74H90.9235V24H88.9635ZM93.5154 24V16.888H95.4334V19.072C95.8394 17.756 96.6234 16.79 97.8834 16.79H97.9114V18.666C96.2454 18.666 95.4334 19.31 95.4334 21.382V24H93.5154ZM105.177 16.888V24.014H103.273V22.432C102.755 23.356 101.873 24.112 100.697 24.112C99.2271 24.098 98.7091 23.09 98.7091 21.466V16.888H100.613L100.599 21.144C100.599 22.264 100.949 22.67 101.677 22.67C102.503 22.67 103.133 21.9 103.273 20.92V16.888H105.177ZM109.427 24.098C107.467 24.098 106.445 23.076 106.123 21.872L107.831 21.494C108.069 22.25 108.573 22.726 109.483 22.726C110.253 22.726 110.659 22.418 110.659 21.9C110.659 21.466 110.309 21.256 109.693 21.116L108.517 20.85C107.131 20.542 106.305 20.122 106.305 18.932C106.305 17.658 107.439 16.79 109.119 16.79C110.981 16.79 111.975 17.658 112.311 18.722L110.561 19.128C110.351 18.582 109.945 18.162 109.063 18.162C108.405 18.162 107.999 18.414 107.999 18.848C107.999 19.268 108.335 19.436 108.825 19.548L110.281 19.856C111.625 20.136 112.367 20.71 112.367 21.802C112.367 23.076 111.373 24.098 109.427 24.098ZM116.054 24C114.528 24 113.632 23.216 113.632 21.704V18.414H112.75V16.888H113.632V15.628L115.536 14.97V16.888H117.076V18.414H115.536V21.69C115.536 22.166 115.802 22.418 116.264 22.418H117.076V24H116.054ZM121.098 24.084C118.9 24.084 117.486 22.628 117.486 20.556C117.486 18.498 118.83 16.79 121.084 16.79C123.114 16.79 124.444 18.232 124.444 20.164C124.444 20.374 124.43 20.612 124.402 20.78H119.418C119.516 22.026 120.23 22.67 121.182 22.67C122.078 22.67 122.47 22.054 122.694 21.48L124.444 21.872C124.052 23.09 122.946 24.084 121.098 24.084ZM119.502 19.618H122.512C122.4 18.806 121.882 18.218 121.042 18.218C120.258 18.218 119.712 18.75 119.502 19.618ZM130.49 24V22.53C130.098 23.44 129.37 24.098 128.208 24.098C126.458 24.098 125.142 22.684 125.142 20.402C125.142 18.148 126.5 16.79 128.11 16.79C129.244 16.79 130.056 17.42 130.49 18.442V14.2H132.394V24H130.49ZM127.116 20.402C127.116 21.788 127.746 22.642 128.74 22.642C129.804 22.642 130.49 21.788 130.49 20.5C130.49 19.156 129.776 18.246 128.74 18.246C127.76 18.246 127.116 19.086 127.116 20.402ZM59.194 38.098C56.226 38.098 54.364 36.152 54.364 33.1C54.364 30.118 56.282 28.102 59.124 28.102C61.364 28.102 62.876 29.404 63.394 31.434L61.462 31.868C61.126 30.58 60.328 29.74 59.082 29.74C57.472 29.74 56.38 31.056 56.38 33.002C56.38 35.116 57.472 36.46 59.222 36.46C60.37 36.46 61.294 35.76 61.56 34.43L63.464 34.892C62.974 36.754 61.392 38.098 59.194 38.098ZM67.5593 38.098C65.4733 38.098 63.9193 36.656 63.9193 34.444C63.9193 32.246 65.4733 30.79 67.5593 30.79C69.6593 30.79 71.2133 32.246 71.2133 34.444C71.2133 36.656 69.6593 38.098 67.5593 38.098ZM65.8933 34.444C65.8933 35.872 66.5093 36.614 67.5593 36.614C68.6093 36.614 69.2393 35.872 69.2393 34.444C69.2393 33.03 68.6093 32.274 67.5593 32.274C66.5093 32.274 65.8933 33.03 65.8933 34.444ZM72.2693 38V30.888H74.1733V32.47C74.6913 31.546 75.5733 30.79 76.7493 30.79C78.2193 30.79 78.7513 31.798 78.7513 33.422V38H76.8473V33.744C76.8473 32.624 76.4973 32.218 75.7693 32.218C74.9153 32.218 74.2713 33.058 74.1733 34.08V38H72.2693ZM80.158 38V30.888H82.062V32.47C82.58 31.546 83.462 30.79 84.638 30.79C86.108 30.79 86.64 31.798 86.64 33.422V38H84.736V33.744C84.736 32.624 84.386 32.218 83.658 32.218C82.804 32.218 82.16 33.058 82.062 34.08V38H80.158ZM91.2247 38.084C89.0267 38.084 87.6127 36.628 87.6127 34.556C87.6127 32.498 88.9567 30.79 91.2107 30.79C93.2407 30.79 94.5707 32.232 94.5707 34.164C94.5707 34.374 94.5567 34.612 94.5287 34.78H89.5447C89.6427 36.026 90.3567 36.67 91.3087 36.67C92.2047 36.67 92.5967 36.054 92.8207 35.48L94.5707 35.872C94.1787 37.09 93.0727 38.084 91.2247 38.084ZM89.6287 33.618H92.6387C92.5267 32.806 92.0087 32.218 91.1687 32.218C90.3847 32.218 89.8387 32.75 89.6287 33.618ZM98.9236 38.098C96.8516 38.098 95.2416 36.642 95.2416 34.486C95.2416 32.204 96.8236 30.79 98.8956 30.79C100.646 30.79 101.906 31.798 102.256 33.114L100.408 33.562C100.226 32.764 99.6796 32.274 98.8676 32.274C97.8596 32.274 97.2156 33.226 97.2156 34.416C97.2156 35.858 97.9436 36.614 98.9796 36.614C99.6796 36.614 100.254 36.208 100.506 35.326L102.284 35.746C101.892 37.062 100.73 38.098 98.9236 38.098ZM105.882 38C104.356 38 103.46 37.216 103.46 35.704V32.414H102.578V30.888H103.46V29.628L105.364 28.97V30.888H106.904V32.414H105.364V35.69C105.364 36.166 105.63 36.418 106.092 36.418H106.904V38H105.882ZM107.926 38V30.888H109.83V38H107.926ZM107.898 30.006V28.326H109.858V30.006H107.898ZM113.027 38L110.549 30.888H112.397L114.077 35.718L115.869 30.888H117.605L114.987 38H113.027ZM118.289 38V30.888H120.193V38H118.289ZM118.261 30.006V28.326H120.221V30.006H118.261ZM124.34 38C122.814 38 121.918 37.216 121.918 35.704V32.414H121.036V30.888H121.918V29.628L123.822 28.97V30.888H125.362V32.414H123.822V35.69C123.822 36.166 124.088 36.418 124.55 36.418H125.362V38H124.34ZM126.496 40.8V39.218H127.252C128.036 39.218 128.288 38.91 128.54 38.28L128.596 38.112L125.642 30.888H127.42L129.422 35.816L131.186 30.888H132.922L130.262 38.266C129.59 40.17 129.016 40.8 127.434 40.8H126.496Z" fill="#fbfafe"></path>
    <path d="M19.3455 0.0507812H23.9184L14.1404 24.3205H9.81396L0 0.0507812H4.71298L12.0289 18.7986L19.3455 0.0507812Z" fill="#fbfafe"></path>
    <path d="M37.2223 6.39688H41.1616V24.3222H37.2223V21.5433C35.6396 23.6885 33.564 24.7439 30.9259 24.7439C28.2877 24.7439 26.2833 23.8646 24.595 22.0706C22.9418 20.2766 22.0977 18.0258 22.0977 15.3524C22.0977 12.6791 22.9418 10.4634 24.595 8.66948C26.2833 6.87552 28.3934 5.96094 30.9259 5.96094C33.4584 5.96094 35.6389 7.01634 37.2223 9.1616V6.39613V6.39688ZM35.6389 19.3621C36.6943 18.2715 37.2216 16.9352 37.2216 15.3524C37.2216 13.7697 36.6943 12.4327 35.6389 11.378C34.5835 10.2874 33.2824 9.76008 31.6996 9.76008C30.1169 9.76008 28.7806 10.2874 27.7252 11.378C26.6698 12.4334 26.1425 13.7697 26.1425 15.3524C26.1425 16.9352 26.6698 18.2715 27.7252 19.3621C28.7806 20.4175 30.1169 20.9448 31.6996 20.9448C33.2824 20.9448 34.5835 20.4175 35.6389 19.3621Z" fill="#fbfafe"></path>
    <path d="M48.2408 20.6983H51.4062V24.3214H44.3008V0H48.24V20.6983H48.2408Z" fill="#fbfafe"></path>
    <path d="M76.7301 0H80.6694V24.3214H76.7301V21.5425C75.1474 23.6877 73.0718 24.7431 70.4344 24.7431C67.7971 24.7431 65.7911 23.8638 64.1028 22.0698C62.4496 20.2758 61.6055 18.025 61.6055 15.3516C61.6055 12.6783 62.4496 10.4626 64.1028 8.66867C65.7911 6.87472 67.9012 5.96014 70.4344 5.96014C72.9677 5.96014 75.1474 7.01554 76.7301 9.1608V0ZM75.1467 19.3613C76.2021 18.2707 76.7294 16.9344 76.7294 15.3516C76.7294 13.7689 76.2021 12.4319 75.1467 11.3772C74.0913 10.2866 72.7902 9.75928 71.2075 9.75928C69.6247 9.75928 68.2884 10.2866 67.233 11.3772C66.1776 12.4326 65.6503 13.7689 65.6503 15.3516C65.6503 16.9344 66.1776 18.2707 67.233 19.3613C68.2884 20.4167 69.6247 20.944 71.2075 20.944C72.7902 20.944 74.0913 20.4167 75.1467 19.3613Z" fill="#fbfafe"></path>
    <path d="M54.5737 9.9894H51.4375V6.36328H58.4433V24.3118H54.5737V9.99015V9.9894Z" fill="#fbfafe"></path>
    <path d="M56.0544 4.78071C57.3724 4.78071 58.4409 3.71226 58.4409 2.39426C58.4409 1.07626 57.3724 0.0078125 56.0544 0.0078125C54.7364 0.0078125 53.668 1.07626 53.668 2.39426C53.668 3.71226 54.7364 4.78071 56.0544 4.78071Z" fill="#fbfafe"></path>
</svg>