<svg width="241" height="16" viewBox="0 0 241 16" fill="none" xmlns="http://www.w3.org/2000/svg">
    <path d="M240.707 8.70709C241.098 8.31656 241.098 7.6834 240.707 7.29287L234.343 0.928912C233.953 0.538387 233.319 0.538387 232.929 0.928912C232.538 1.31944 232.538 1.9526 232.929 2.34313L238.586 7.99998L232.929 13.6568C232.538 14.0474 232.538 14.6805 232.929 15.071C233.319 15.4616 233.953 15.4616 234.343 15.071L240.707 8.70709ZM8.74228e-08 9L240 8.99998L240 6.99998L-8.74228e-08 7L8.74228e-08 9Z" fill="url(#paint0_linear_2892_12455)"></path>
    <defs>
        <linearGradient id="paint0_linear_2892_12455" x1="4.37114e-08" y1="8.5" x2="240" y2="8.49998" gradientUnits="userSpaceOnUse">
            <stop stop-color="#191F80"></stop>
            <stop offset="0.339518" stop-color="#1A14FA"></stop>
            <stop offset="0.679518" stop-color="#3276FB"></stop>
            <stop offset="1" stop-color="#21BDFC"></stop>
        </linearGradient>
    </defs>
</svg>